<svg xml:space="preserve" viewBox="119.61 200.44799999999998 844.5600000000001 734.4000000000001" version="1.1" xmlns:xlink="http://www.w3.org/1999/xlink" xmlns="http://www.w3.org/2000/svg" style="max-height: 500px" width="844.5600000000001" height="734.4000000000001">
<desc>Created with Fabric.js 5.2.4</desc>
<defs>
</defs>
<g id="60d4888d-6abf-493f-b0b4-a00d9550f62d" transform="matrix(1 0 0 1 540 540)">
<rect height="1080" width="1080" ry="0" rx="0" y="-540" x="-540" style="stroke: none; stroke-width: 1; stroke-dasharray: none; stroke-linecap: butt; stroke-dashoffset: 0; stroke-linejoin: miter; stroke-miterlimit: 4; fill: rgb(255,255,255); fill-rule: nonzero; opacity: 1; visibility: hidden;"/>
</g>
<g id="9ba803d8-6d6c-41f8-9ac3-12735c248961" transform="matrix(1 0 0 1 540 540)">
</g>
<g transform="matrix(6.02 0 0 6.02 540 570.77)">
<g style="">
		<g transform="matrix(1 0 0 1 29.45 -6.22)">
<path stroke-linecap="round" d="M 100.69 63.11 L 100.78 63.11 C 101.01298223131462 63.108403895254966 101.21117418411343 62.939729892873004 101.25 62.71 C 102.09451630084712 57.335411028439744 101.03328428613963 51.83469175220589 98.25 47.16 C 98.09199991556876 46.97277269869408 97.82000093714501 46.931008915594035 97.61310824672604 47.06220915829875 C 97.40621555630707 47.193409401003464 97.32801505238405 47.4572509046161 97.43 47.68 C 97.43 47.75 101.73 54.53 100.25 62.53 C 100.22717011904345 62.66591299429365 100.26145159782862 62.8052223339438 100.34474637337188 62.91501999261444 C 100.42804114891511 63.02481765128508 100.55296207681495 63.095366029537914 100.69 63.11 Z" transform="translate(-99.46, -55.05)" style="stroke: none; stroke-width: 1; stroke-dasharray: none; stroke-linecap: butt; stroke-dashoffset: 0; stroke-linejoin: miter; stroke-miterlimit: 4; fill: rgb(226,220,200); fill-rule: nonzero; opacity: 1;"/>
</g>
		<g transform="matrix(1 0 0 1 2.22 44.17)">
<path stroke-linecap="round" d="M 96.82 96.48 C 96.692443054256 96.45052283582349 96.5583806176389 96.47442669189775 96.44887230466165 96.54617351764146 C 96.3393639916844 96.61792034338518 96.26391306076088 96.73128386604442 96.24 96.86 C 94.63183913314006 102.48921621057137 90.83579109481539 107.2396786038828 85.7 110.05 C 76.77 115 64.1 114.52 48 108.66 C 47.74618956872003 108.57164526118055 47.467935720041055 108.69973036612801 47.37 108.95 C 47.32480004080979 109.07199315273546 47.32996954880151 109.2069536216342 47.384368996354986 109.32513173183659 C 47.43876844390847 109.44330984203899 47.53793171466895 109.53500334077432 47.66 109.58 Q 60.9 114.41 71.11 114.41 C 76.32880321236419 114.53927453936174 81.49348529636049 113.32729581031728 86.11000000000001 110.89 C 91.51542322025809 107.98035456573668 95.49134512880737 102.98153638435154 97.11 97.06 C 97.17337872914513 96.82120339320123 97.04906452292609 96.57257498076315 96.82 96.48 Z" transform="translate(-72.23, -105.44)" style="stroke: none; stroke-width: 1; stroke-dasharray: none; stroke-linecap: butt; stroke-dashoffset: 0; stroke-linejoin: miter; stroke-miterlimit: 4; fill: rgb(226,220,200); fill-rule: nonzero; opacity: 1;"/>
</g>
		<g transform="matrix(1 0 0 1 -46.35 51.93)">
<path stroke-linecap="round" d="M 37 104 C 32.7311767516023 107.87196204853981 27.891010408286277 111.06276160308822 22.65 113.46000000000001 C 14.139999999999999 117.25000000000001 9.849999999999998 121.52000000000001 9.649999999999999 121.7 C 9.46061110778483 121.89101287772338 9.46061110778483 122.19898712227662 9.649999999999999 122.39 C 9.738227227555793 122.48295244738766 9.861901724580909 122.53387724028035 9.989999999999998 122.53 C 10.121090341002052 122.53421296648065 10.247978005812751 122.48345790055637 10.339999999999998 122.39 C 14.091960871727123 119.03620117878448 18.37754363900354 116.33236347072365 23.01999999999999 114.39000000000001 C 28.363162412687387 111.94772954254721 33.29780388406515 108.69619544930856 37.650000000000006 104.75 C 37.78397459621556 104.63388868327985 37.8458275782579 104.45512280591457 37.81225952641916 104.28104174377006 C 37.778691474580434 104.10696068162554 37.65480217447346 103.96401148919442 37.487259526419166 103.90604174377006 C 37.31971687836487 103.8480719983457 37.13397459621556 103.88388868327985 37 104 Z" transform="translate(-23.66, -113.2)" style="stroke: none; stroke-width: 1; stroke-dasharray: none; stroke-linecap: butt; stroke-dashoffset: 0; stroke-linejoin: miter; stroke-miterlimit: 4; fill: rgb(226,220,200); fill-rule: nonzero; opacity: 1;"/>
</g>
		<g transform="matrix(1 0 0 1 22.74 -4.55)">
<path stroke-linecap="round" d="M 88.63 79.11 C 88.36535668784174 79.0677599144226 88.11587342569432 79.2459622445279 88.07 79.51 C 88.07 79.58 87.97999999999999 80.12 87.89999999999999 81.01 L 88.89999999999999 80.88000000000001 C 88.96999999999998 80.12 89.02999999999999 79.69000000000001 89.03999999999999 79.67000000000002 C 89.06010174627939 79.54133957150592 89.02816283465671 79.40996932465502 88.95123605565198 79.30489860211195 C 88.87430927664724 79.19982787956889 88.75872259258489 79.12969975182561 88.63 79.11 Z M 96.63 32.44 L 96.63 32.44 C 96.63 32.71061952741709 96.84938047258291 32.93 97.11999999999999 32.93 L 97.11999999999999 32.93 C 97.37739801817415 32.92567350933257 97.58944160834437 32.726612179785015 97.60999999999999 32.47 Z" transform="translate(-92.75, -56.73)" style="stroke: none; stroke-width: 1; stroke-dasharray: none; stroke-linecap: butt; stroke-dashoffset: 0; stroke-linejoin: miter; stroke-miterlimit: 4; fill: rgb(62,61,67); fill-rule: nonzero; opacity: 1;"/>
</g>
		<g transform="matrix(1 0 0 1 0 0)">
<path stroke-linecap="round" d="M 140 121.91 C 136.32 108.85 132.65 100.78 128.1 95.74 C 123.27 90.39 117.61 88.91999999999999 112.22 88.14 C 100.7 86.46 91.4 84.52 90.08 84.24 C 89.6831593416978 83.86173720973714 89.24739899959552 83.52653694658153 88.78 83.24 C 88.78 82.24 88.84 81.47 88.9 80.86999999999999 L 87.9 80.99999999999999 C 87.59668545725255 84.79718479185038 87.9004959504307 88.61844566160232 88.8 92.31999999999998 C 88.85850582580416 92.53729769447708 89.05496750397239 92.68873690473174 89.28000000000002 92.69 L 89.40000000000002 92.69 C 89.52539427694667 92.65940107834754 89.63318114166005 92.5795903907496 89.69903478772133 92.46857995881771 C 89.76488843378262 92.35756952688584 89.78325880628284 92.22471515746655 89.75000000000001 92.1 C 89.12419776244516 89.58664061674048 88.78867275180832 87.00980853504942 88.75000000000003 84.41999999999999 C 88.96746043752417 84.58363490203972 89.17452726152976 84.76064363868966 89.37000000000002 84.94999999999999 C 89.41312063603922 85.00988577995888 89.467459638051 85.0608285943449 89.53000000000002 85.1 C 91.13000000000001 86.69 93.24000000000001 90.1 91.90000000000002 96.78 C 89.79000000000002 107.27 75.70000000000002 109.61 63.21000000000002 108.29 C 50.07000000000002 106.91000000000001 40.73000000000002 103.53 37.880000000000024 91.63000000000001 C 43.260000000000026 88.34 46.480000000000025 86.08000000000001 46.880000000000024 82.50000000000001 C 47.35915349168374 77.1009963036702 46.95724270404386 71.66000236343623 45.69000000000002 66.39000000000001 C 46.16503677284576 66.58151907454051 46.66227019263994 66.71254680002681 47.17000000000002 66.78000000000002 C 47.380000000000024 66.78000000000002 47.60000000000002 66.78000000000002 47.810000000000024 66.78000000000002 C 49.484254322687896 66.72579023577897 51.04668812314394 65.92623491066297 52.07000000000002 64.60000000000001 C 52.19667651050202 64.46957409855368 52.24072028105628 64.27972887092048 52.18440988895797 64.10685031868573 C 52.12809949685966 63.933971766450966 51.98069391167054 63.80648585493605 51.80150314820801 63.77568773209117 C 51.622312384745484 63.744889609246286 51.44080030860918 63.81584332934906 51.33000000000002 63.96000000000001 C 50.40522867046247 65.22168225221102 48.8881915912409 65.90814153055878 47.33000000000002 65.77000000000001 C 46.62708440400569 65.65716680164442 45.94985895263604 65.42013789366504 45.33000000000002 65.07000000000001 L 45.25000000000002 65.07000000000001 C 40.86000000000002 62.63000000000001 36.93000000000002 55.260000000000005 36.57000000000002 54.580000000000005 C 36.257565264151 52.32315725235496 36.742056835557165 50.028011049124274 37.94000000000002 48.09000000000001 C 38.420000000000016 47.77 41.14000000000002 46.24 44.94000000000002 49.650000000000006 C 45.032758572033096 49.72705339634045 45.14941351137642 49.76947337428348 45.27000000000002 49.77 C 45.40683960737751 49.768180685574016 45.5369529369257 49.71035253910815 45.63000000000002 49.61000000000001 C 45.81938889221519 49.418987122276626 45.81938889221519 49.11101287772339 45.63000000000002 48.92000000000001 C 45.02090478090755 48.353273255674985 44.35002472132236 47.85682201158195 43.63000000000002 47.44000000000001 C 43.00360947987571 47.09124853648205 42.32992209130725 46.835247328826036 41.63000000000001 46.680000000000014 C 40.880066292795284 46.49931113042958 40.101801310491034 46.468724297063915 39.34000000000002 46.59000000000001 L 39.01000000000002 46.50000000000001 C 39.07092561233007 46.40269639086019 39.137715703461296 46.30919026327648 39.21000000000002 46.220000000000006 C 41.21000000000002 43.620000000000005 44.68000000000002 40.52 50.93000000000002 37.57000000000001 C 52.64000000000002 36.760000000000005 54.560000000000024 35.96000000000001 56.71000000000002 35.190000000000005 C 77.67 27.63 89.68 25.33 94.39 28 C 95.43925208425995 28.565882952683655 96.17492956286753 29.577439485769087 96.39 30.749999999999996 L 96.39 30.75 C 96.39472255689473 30.766332128512307 96.39472255689473 30.783667871487694 96.39 30.8 C 96.5417345627169 31.336319413782977 96.60920620864843 31.8929604927182 96.59 32.45 L 97.59 32.5 L 97.59 32.5 C 97.6003148871662 31.89062862165937 97.53310934057392 31.282418424999175 97.39 30.689999999999998 C 97.81 29.62 99.89 23.69 96.24 20.150000000000002 C 96.11999999999999 18.900000000000002 95.24 12.260000000000002 90.58 9.330000000000002 C 89.24265339724745 7.6936146305878115 87.636349299207 6.29697548850211 85.83 5.199999999999996 C 85.17124817721017 4.789244579453266 84.55783011920639 4.309906971286374 84 3.7699999999999987 C 81.79 1.77 79 -0.7899999999999996 70.21000000000001 0.2400000000000002 C 58.93 1.55 52.44 2.59 39.74 10.35 C 32.07 15 27.12 21.43 26.14 27.89 C 25.676997240820587 30.761265925762334 26.088132732348296 33.705414148990414 27.32 36.34 C 26.25 37.470000000000006 22.5 42.220000000000006 24.810000000000002 51.650000000000006 C 25.71 55.34 26.700000000000003 59.02 27.660000000000004 62.580000000000005 C 29.430000000000003 69.21000000000001 30.970000000000002 74.93 31.390000000000004 78.58000000000001 C 31.970000000000002 83.78000000000002 34.11000000000001 84.44000000000001 36.17 85.08000000000001 C 36.5 85.19000000000001 36.84 85.29 37.17 85.42000000000002 C 38.653628102254416 86.13761334881804 39.938010271735784 87.20907654902709 40.910000000000004 88.54000000000002 C 39.45 89.54000000000002 37.7 90.60000000000002 35.690000000000005 91.82000000000002 C 22.151130673184124 99.59845463196376 10.106285035663884 109.72669002747207 0.11999999999998323 121.73000000000003 C -0.05626890402065299 121.93449850285354 -0.03391004939631376 122.24305069666943 0.17000000000000004 122.42 C 0.2596908648754195 122.49561282800717 0.37270666695216326 122.53799375378595 0.49000000000000016 122.54 C 0.6344399236574969 122.54004153249939 0.7708774962002896 122.47366649720828 0.8600000000000001 122.36 C 10.788748241507312 110.4524204115785 22.750647830651893 100.40009098045195 36.190000000000026 92.67000000000002 L 37.03 92.16 C 38.14523575788507 97.33154546365701 41.35763134109113 101.80789376223953 45.9 104.52 C 49.9 106.94 55.4 108.45 63.14 109.25999999999999 C 65.27550257067772 109.49193235497123 67.42193986844532 109.60876797771131 69.57000000000001 109.60999999999999 C 73.89875612195792 109.69263648048101 78.21106028087372 109.05390177355696 82.33 107.71999999999998 C 88.24 105.65999999999998 91.89 101.93999999999998 92.89 96.97999999999999 C 94.08 91.1 92.69 87.51999999999998 91.16 85.46999999999998 C 94.34 86.10999999999999 102.44 87.69999999999999 112.08 89.09999999999998 C 117.82 89.93999999999998 122.53999999999999 91.40999999999998 126.75 95.72999999999998 C 122.60782576557767 93.6281948866969 118.07689841328897 92.40269988532654 113.43999999999998 92.12999999999997 C 107.6572960764721 91.71593955801217 101.90609959326606 90.94109775539674 96.21999999999998 89.81000000000002 C 96.09529848827754 89.78007138287614 95.96380605492004 89.80128797385862 95.85484590914017 89.86891840917026 C 95.74588576336029 89.9365488444819 95.66851948951349 90.04496869245382 95.64 90.16999999999999 C 95.57723793567317 90.43221733275661 95.73811297046174 90.69587363977122 96 90.75999999999999 C 101.73140169930187 91.90607891452652 107.52969753280101 92.68764644047053 113.35999999999996 93.1 C 124.66 94.1 129.04 98.47999999999999 129.17 98.61999999999999 C 132.80999999999997 103.61999999999999 135.92 111.04999999999998 139.06 122.17999999999999 C 139.1182714793709 122.39177839748103 139.31035379237048 122.53890527552328 139.53 122.53999999999999 L 139.66 122.53999999999999 C 139.78960069610127 122.50301191232458 139.89878074429046 122.41526998496988 139.96279006475987 122.29666447939421 C 140.02679938522928 122.17805897381854 140.04021654449392 122.0386354873617 140 121.91 Z M 44.58 65.84 C 45.188692007222144 68.21515464162157 45.62318003626407 70.63157652621629 45.87999999999999 73.06999999999998 C 43.689062753147624 69.7851815188463 41.94382249750334 66.22408434981487 40.69000000000001 62.48000000000001 C 41.805268282561684 63.79426652373691 43.117512850443205 64.92772198596876 44.580000000000005 65.84 Z M 95.3 20.37 C 95.31148608008769 20.495780999473595 95.36835923365719 20.6130818787107 95.46 20.7 C 98.08999999999999 23.11 97.46 27.09 96.88 29.13 C 96.42251396623153 28.282651360118596 95.7273486398814 27.587486033768457 94.88 27.13 C 89.88 24.33 77.64 26.59 56.279999999999994 34.26 C 46.50999999999999 37.76 40.059999999999995 42.26 37.099999999999994 47.489999999999995 L 37.099999999999994 47.489999999999995 L 37.019999999999996 47.63999999999999 C 35.974125644625154 49.443657545478075 35.43190291981135 51.49512441515579 35.449999999999996 53.579999999999984 C 32.62970062820128 51.3567054614976 30.771634129636926 48.13462482814902 30.259999999999994 44.58 C 29.559999999999995 38.57999999999999 33.519999999999996 33.57999999999999 33.559999999999995 33.57999999999999 C 41.8575706553935 23.309970969614227 52.982544956419275 15.6963166823497 65.55999999999996 11.68 C 71.15495165421538 9.808551629204878 77.00151665416394 8.797035193227611 82.89999999999998 8.679999999999986 C 84.65276446945096 8.632552230323972 86.40422508609153 8.81408557638653 88.11 9.219999999999995 C 94.6 11.12 95.3 20.28 95.3 20.37 Z M 27.11 28 C 28.04 21.82 32.83 15.68 40.25 11.149999999999999 C 52.77 3.53 59.19 2.5 70.36 1.2 C 78.74 0.19999999999999996 81.36 2.59 83.36 4.49 C 83.97151610398822 5.074155491211737 84.64173978576588 5.593578844589415 85.36 6.039999999999997 C 86.43674842102006 6.674094176134244 87.44248440603124 7.421691258325888 88.36 8.27 C 85.05 7.34 76.25 7.27 65.36 10.76 C 52.55654427121948 14.823154774995663 41.22795964320475 22.55635680467791 32.78000000000002 32.999999999999986 C 31.492903216243736 34.70670318792703 30.514782502974402 36.625715106348174 29.889999999999997 38.67 C 27.48223144193615 35.67347431193504 26.47053755498417 31.79046216309417 27.11 28.000000000000007 Z M 37.51 84.47999999999999 C 37.16 84.35 36.809999999999995 84.24 36.51 84.13 C 34.589999999999996 83.53 32.92 83.02 32.41 78.44999999999999 C 31.989999999999995 74.71 30.409999999999997 68.94999999999999 28.65 62.28999999999999 C 27.65 58.739999999999995 26.65 55.05999999999999 25.799999999999997 51.379999999999995 C 23.799999999999997 43.12 26.699999999999996 38.62 27.849999999999998 37.239999999999995 C 28.358717726027752 38.131126509930624 28.951410504668445 38.97161174969794 29.619999999999997 39.74999999999999 C 29.238234611681627 41.36739428627661 29.136762979680658 43.03829382655915 29.319999999999993 44.69 C 29.769999999999996 48.56999999999999 31.919999999999998 52.04999999999999 35.72 55.01999999999999 C 36.67945574307414 56.88203187907123 37.77580102313473 58.67027799136519 38.99999999999999 60.37 C 39.29 61.419999999999995 41.53 69.16 46 74.83 C 46.0240873731298 74.85912691199132 46.05087308800867 74.8859126268702 46.08 74.91 C 46.26499181365487 77.40147472852962 46.231530765442336 79.90436113482728 45.98 82.39 C 45.739999999999995 84.51 44.26 86.18 41.75 88 C 40.65320492236721 86.50057142296785 39.19452051180325 85.30334931241065 37.50999999999999 84.52 Z" transform="translate(-70.01, -61.27)" style="stroke: none; stroke-width: 1; stroke-dasharray: none; stroke-linecap: butt; stroke-dashoffset: 0; stroke-linejoin: miter; stroke-miterlimit: 4; fill: rgb(226,220,200); fill-rule: nonzero; opacity: 1;"/>
</g>
		<g transform="matrix(1 0 0 1 57.82 50.04)">
<path stroke-linecap="round" d="M 124.81 100.15 C 124.57961887891852 100.28861233881516 124.50010089173442 100.58459595777818 124.63 100.82000000000001 C 128.08282916295434 107.37469323704912 129.9624292665029 114.64316504002483 130.12 122.05 C 130.11731133813478 122.17902761366348 130.16669317974709 122.30370233980298 130.25700370273245 122.3958943320172 C 130.3473142257178 122.48808632423143 130.47094437941044 122.54002800996571 130.6 122.54 C 130.72995608002137 122.54 130.85458949734186 122.48837514822095 130.9464823227814 122.39648232278142 C 131.03837514822095 122.30458949734188 131.09 122.17995608002138 131.09 122.05000000000001 C 130.92983036231743 114.4728932448138 129.00921433760567 107.03692532026129 125.47999999999999 100.32999999999997 C 125.34138766118485 100.09961887891853 125.04540404222183 100.02010089173443 124.81 100.15 Z" transform="translate(-127.83, -111.31)" style="stroke: none; stroke-width: 1; stroke-dasharray: none; stroke-linecap: butt; stroke-dashoffset: 0; stroke-linejoin: miter; stroke-miterlimit: 4; fill: rgb(226,220,200); fill-rule: nonzero; opacity: 1;"/>
</g>
		<g transform="matrix(1 0 0 1 20.58 -0.49)">
<path stroke-linecap="round" d="M 84.65 62.44 C 84.65 62.44 88.58000000000001 57.76 92.29 58.69 C 92.29 58.69 95.85000000000001 57.01 96.53 60.4 C 96.53 60.4 95.47 62.55 91.61 63.12 C 87.14 63.77 84.65 62.44 84.65 62.44 Z" transform="translate(-90.59, -60.79)" style="stroke: rgb(226,220,200); stroke-width: 0.75; stroke-dasharray: none; stroke-linecap: round; stroke-dashoffset: 0; stroke-linejoin: round; stroke-miterlimit: 4; fill: none; fill-rule: nonzero; opacity: 1;"/>
</g>
		<g transform="matrix(1 0 0 1 20.58 0.15)">
<path stroke-linecap="round" d="M 84.65 62.44 C 87.17758993720325 61.74869719409808 89.74151293623623 61.19785436227458 92.33000000000003 60.78999999999999 C 95.19000000000001 60.44 96.53000000000002 60.4 96.53000000000002 60.4" transform="translate(-90.59, -61.42)" style="stroke: rgb(226,220,200); stroke-width: 0.75; stroke-dasharray: none; stroke-linecap: round; stroke-dashoffset: 0; stroke-linejoin: round; stroke-miterlimit: 4; fill: none; fill-rule: nonzero; opacity: 1;"/>
</g>
		<g transform="matrix(1 0 0 1 13.87 -9.94)">
<path stroke-linecap="round" d="M 82.51 49.3 C 82.51 49.3 82.19000000000001 52.83 85.26 53.37" transform="translate(-83.88, -51.33)" style="stroke: rgb(226,220,200); stroke-width: 0.75; stroke-dasharray: none; stroke-linecap: round; stroke-dashoffset: 0; stroke-linejoin: round; stroke-miterlimit: 4; fill: none; fill-rule: nonzero; opacity: 1;"/>
</g>
		<g transform="matrix(1 0 0 1 21.94 -12.14)">
<path stroke-linecap="round" d="M 87.08 51.33 C 88.43499770168117 50.03739726632297 90.39309955686478 49.59884400209717 92.17 50.19 C 95.06 51.26 97.74000000000001 51.089999999999996 96.53 46.94" transform="translate(-91.95, -49.13)" style="stroke: rgb(226,220,200); stroke-width: 0.75; stroke-dasharray: none; stroke-linecap: round; stroke-dashoffset: 0; stroke-linejoin: round; stroke-miterlimit: 4; fill: none; fill-rule: nonzero; opacity: 1;"/>
</g>
		<g transform="matrix(1 0 0 1 1.93 -18.67)">
<path stroke-linecap="round" d="M 102.72 46.74 C 101.80393697916881 47.8538662996643 100.44210237152097 48.505496837732345 99 48.52 C 97.62568002978101 48.571092629096746 96.29099293068697 48.05385616522019 95.31 47.09 C 93.15 44.99 90.52 41.790000000000006 90.44 38.63 C 90.42054391010218 37.93406463440516 90.50823562000407 37.23927647133641 90.7 36.57 C 89.156334103057 36.22261017447353 87.54151373314981 36.38760269052926 86.1 37.04 C 87.71000000000001 40.41 86.48 45.64 82.48 49.68 C 75.81 56.44 69.7 51.13 69.30000000000001 43.25 L 52.34 46 L 46.870000000000005 46.88 L 43.49 47.43 C 42.8636094798757 47.081248536482036 42.18992209130724 46.82524732882602 41.489999999999995 46.67 C 40.74006629279527 46.48931113042957 39.96180131049102 46.4587242970639 39.2 46.58 L 38.870000000000005 46.489999999999995 C 38.93092561233006 46.39269639086018 38.99771570346128 46.299190263276465 39.07000000000001 46.209999999999994 L 51.81000000000001 43.8 L 65.4 41.24 L 69.26 40.120000000000005 C 69.26 40.120000000000005 69.94000000000001 34.550000000000004 79.05000000000001 33.7 C 79.87971908401884 33.62080668278523 80.7160404707603 33.644317725785996 81.54 33.77 L 81.54 33.77 C 86.52488646027179 32.91260250911189 91.57199122452188 32.467761598810185 96.63 32.43999999999999 L 97.63000000000001 32.49 C 99.33091431240908 32.465718024717255 101.01122411471387 32.8643191230145 102.52000000000001 33.64999999999999 C 105.55 35.78 106.06 42.7 102.72 46.74 Z" transform="translate(-71.94, -42.61)" style="stroke: none; stroke-width: 1; stroke-dasharray: none; stroke-linecap: butt; stroke-dashoffset: 0; stroke-linejoin: miter; stroke-miterlimit: 4; fill: rgb(0,255,255); fill-rule: nonzero; opacity: 1;"/>
</g>
		<g transform="matrix(1 0 0 1 0.14 -1.79)">
<path stroke-linecap="round" d="M 100.51 57.09 L 100.51 57.09 C 99.40731894863296 54.31536923719464 96.37836987217409 52.83118418972979 93.51 53.660000000000004 C 89.39128616323985 53.765083897704734 85.4323111893775 55.275281124810874 82.29 57.940000000000005 C 77.11000000000001 62.53 80.29 70.18 76.93 68.94 C 73.57000000000001 67.69999999999999 73.93 62.65 63.28000000000001 58.39 C 56.32 55.59 53.71 51.21 52.34 46 C 52.150000000000006 45.28 51.99 44.55 51.84 43.8 C 51.440000000000005 41.8 51.150000000000006 39.709999999999994 50.84 37.559999999999995 C 44.59 40.559999999999995 41.09 43.559999999999995 39.120000000000005 46.209999999999994 C 39.04771570346128 46.299190263276465 38.980925612330054 46.39269639086019 38.92 46.489999999999995 L 39.25 46.58 C 40.011801310491016 46.4587242970639 40.79006629279526 46.48931113042957 41.53999999999999 46.67 L 46.36 46.46 C 46.55193138930266 46.57957741926904 46.72972731852022 46.72047230657352 46.89 46.88 C 47.82 47.730000000000004 49.8 50.06 51.75 55.540000000000006 C 54.38 63 52.62 71.71 61 76.46 C 67.6 80.21 77.57 82.34 87.9 81 L 88.9 80.87 C 90.71634761048756 80.59422091548547 92.51583027825123 80.21696388124188 94.29000000000002 79.74000000000001 C 96.39857107727053 79.17680274908648 98.19709565008414 77.79913292631126 99.29 75.91000000000001 C 99.95067962306129 74.75289413052346 100.29553947706748 73.44242668529992 100.29 72.11000000000001 C 100.29 67.24000000000001 100.88000000000001 65.83000000000001 101.36 62.22000000000001 C 101.36 62.100000000000016 101.36 61.97000000000001 101.36 61.850000000000016 C 101.4808384715088 60.21713181268481 101.18851605973232 58.58012630673644 100.51 57.09 Z M 98.2 69.38 C 95.87 69.02 95.91 63.74999999999999 94.06 63.74999999999999 C 93.28517049995948 63.71476274334135 92.52906852773101 63.994638343009974 91.96392280395652 64.525875323358 C 91.39877708018204 65.057112303706 91.07271188749547 65.79447383905752 91.06 66.57 C 95.29 72.47999999999999 89.14 74.97 85.24000000000001 73.91999999999999 C 81.34000000000002 72.86999999999998 79.65 69.46 82.74000000000001 63.54999999999999 C 85.83000000000001 57.639999999999986 92.39000000000001 57.31999999999999 92.39000000000001 57.31999999999999 C 97.10000000000001 56.16 96.55000000000001 60.39999999999999 96.55000000000001 60.39999999999999 C 99.58 64.3 100.53 69.74 98.2 69.38 Z" transform="translate(-70.15, -59.48)" style="stroke: none; stroke-width: 1; stroke-dasharray: none; stroke-linecap: butt; stroke-dashoffset: 0; stroke-linejoin: miter; stroke-miterlimit: 4; fill: rgb(0,255,255); fill-rule: nonzero; opacity: 1;"/>
</g>
</g>
</g>
</svg>