<svg viewBox="0 0 134.99721706864563 124.47" xmlns="http://www.w3.org/2000/svg" style="max-height: 500px" width="134.99721706864563" height="124.47"><defs><style>.cls-1{fill:#e2dcc8;}.cls-2{fill:aqua;}.cls-3{fill:none;stroke:#e2dcc8;stroke-linecap:round;stroke-linejoin:round;stroke-width:0.75px;}</style></defs><g data-name="Layer 2" id="Layer_2"><g data-name="Layer 1" id="Layer_1-2"><path d="M133.89,123.2c-1.55-3.33-6.2-13.28-14.86-14.13h-.12l-.61,0c-9.45-.34-24-7.4-28.12-11.64-3.75-3.87-6.92-3.52-7.72-3.34a14.16,14.16,0,0,1-6-6.52A53,53,0,0,0,82.77,69c3.25-.89,3.94-5.88,4.36-10.93.1-1.11.22-2.2.33-3.25a39.66,39.66,0,0,0,.36-4.73c-.07-2.11-.51-3.35-1.35-3.77a1.56,1.56,0,0,0-1.53.15.42.42,0,1,0,.48.68.76.76,0,0,1,.68-.08c.24.12.81.65.89,3a38,38,0,0,1-.35,4.61c-.12,1.05-.24,2.15-.33,3.27-.38,4.55-1,9-3.41,10.08a32.61,32.61,0,0,0,.32-4.52.41.41,0,0,0-.42-.41.41.41,0,0,0-.4.43,51.16,51.16,0,0,1-6.74,23.7A23.94,23.94,0,0,1,60.89,98.75a20.57,20.57,0,0,1-15.71-2.06,30.4,30.4,0,0,1-4-2.92l0,0h0l0,0c-7-6-11.63-15.36-13-26.4a.42.42,0,0,0-.47-.36.42.42,0,0,0-.36.46c.13,1,.29,2,.47,3-1.52-.92-2-2.87-2.43-5.43a14.2,14.2,0,0,0-.46-1.75A7.93,7.93,0,0,1,24.34,61a25,25,0,0,0-.28-6.08c-.09-.66-.19-1.46-.31-2.45-.29-2.38.15-3.33.58-3.71a1.07,1.07,0,0,1,.94-.26.41.41,0,0,0,.21-.8,1.93,1.93,0,0,0-1.69.43c-.84.73-1.13,2.23-.86,4.44.12,1,.22,1.79.3,2.46a24,24,0,0,1,.29,5.93A8.21,8.21,0,0,0,24,63.46c.17.57.35,1.16.44,1.65.43,2.49.93,5.3,3.43,6.31,1.9,9.36,6.24,17.29,12.37,22.68-.26.33-.7.9-1.25,1.7a.44.44,0,0,0-.37,0A108.94,108.94,0,0,0,23.19,103C15.54,107.35,5.33,114.49.05,123.85a.41.41,0,0,0,.16.56.39.39,0,0,0,.2.06.41.41,0,0,0,.36-.21C6,115.07,16,108,23.59,103.73a109.08,109.08,0,0,1,14.8-7,53,53,0,0,0-8.75,27.32.41.41,0,0,0,.4.42h0a.42.42,0,0,0,.42-.41c.29-14.57,7.57-25.58,10-28.79a115.48,115.48,0,0,1-1.11,15.49.42.42,0,0,0,.33.48h.08a.41.41,0,0,0,.4-.34,116.27,116.27,0,0,0,1.13-16,29,29,0,0,0,3.5,2.46,20.59,20.59,0,0,0,10.68,2.89,22.9,22.9,0,0,0,5.67-.72,24.57,24.57,0,0,0,14.36-10.4c.7.73,2.29,2.8,2.82,6.86.62,4.87-.2,13.65-7.69,27.84a.41.41,0,0,0,.17.56.49.49,0,0,0,.2,0,.4.4,0,0,0,.36-.22c6.13-11.61,8.74-21.18,7.76-28.44a15.41,15.41,0,0,0-1.27-4.56,16.41,16.41,0,0,0,7.51,5,1.83,1.83,0,0,1,1.25,1.29c1.81,5.91-13.66,26.09-13.81,26.29a.41.41,0,0,0,.07.58.43.43,0,0,0,.26.09.42.42,0,0,0,.32-.16c.65-.85,15.88-20.73,14-27a2.66,2.66,0,0,0-1.79-1.83c-.59-.2-1.13-.42-1.65-.65,1.28.12,3.32.76,5.66,3.16,4.22,4.34,19,11.55,28.68,11.9h0c-1,2-4.55,9-6,14.09a.42.42,0,0,0,.29.51l.11,0a.42.42,0,0,0,.4-.3c1.52-5.35,5.35-12.79,6.11-14.25,8,1,12.48,10.44,14,13.63.13.28.24.52.33.69a.42.42,0,0,0,.37.23.43.43,0,0,0,.37-.6Zm-58-34.75,0,0,.07.15Z" class="cls-1"/><path d="M12.3,124.47a.42.42,0,0,0,.41-.34,80.14,80.14,0,0,1,3.35-9.95.41.41,0,0,0-.23-.54.41.41,0,0,0-.54.23A79.91,79.91,0,0,0,11.9,124a.4.4,0,0,0,.33.48Z" class="cls-1"/><path d="M40.85,10.88s-12.88,7.4-14,17.78.91,21.33-.24,26.5a19.06,19.06,0,0,0-.3,3.94,15.3,15.3,0,0,0,.19,3.59s-1.25-3.42-.9-10.34-3-10-1.64-19.78.55-16.24,15.87-25.35c0,0-.29-2-2.9-1.07a56.74,56.74,0,0,1,12.68-4.6C56.45,0,58-2.09,66.42,4.66c3,2.38,4.78,4.54,6.13,5.72,2.49,2.17,3.19,2.37,5,3.86,2.75,2.31,2.53,4.17,2.53,4.17s4.39,3.65,5.58,14.66c.71,6.6-.22,11.69-.71,15.79a46.9,46.9,0,0,0-.18,7,9.25,9.25,0,0,1-1.36,4.79,45.87,45.87,0,0,0-.12-9.17c-.59-4.43.89-10.17-2.9-15.08a19.65,19.65,0,0,0-.06-11C78.47,20,74.77,14.73,65.46,15.08S41.54,17.12,40.85,10.88Z" class="cls-2"/><path d="M63.26,45.39a18.2,18.2,0,0,1,17.43.92.24.24,0,0,1,.07.31.22.22,0,0,1-.26.09,21.34,21.34,0,0,0-8.27-.93,30.3,30.3,0,0,0-8,1.89,1.25,1.25,0,0,1-1-2.28Z" class="cls-1"/><path d="M45.18,48.69c-4.93-1.27-10.34-2-15.22,0-.23.11-.43-.23-.23-.37,3.36-2.64,7.92-3.39,12.09-2.94,1.32.31,5.64.45,4.91,2.6a1.26,1.26,0,0,1-1.55.74Z" class="cls-1"/><path d="M76.61,52.33c-8.09-6.64-13.3.9-13.3.9A20.53,20.53,0,0,1,68,53.9c4.21,1.15,7.61-2.34,7.61-2.34" class="cls-3"/><path d="M34.61,54.13c7.13-7,13.4.45,13.4.45s-2,.29-4.8.94a9.84,9.84,0,0,1-8-1.92" class="cls-3"/><path d="M48.17,66.4s-3.11,4.25,1.53,6.29" class="cls-3"/><path d="M64,65.67s2.09,3.81-1,6.32" class="cls-3"/><path d="M49.93,70.84s1.24-1.07,3,.46,3.05,2.06,4.87.56S60.7,69.63,62,70.48" class="cls-3"/><path d="M43.74,82.08a15.48,15.48,0,0,0,6.73-1.94c3-1.52,6.16.76,6.16.76a7,7,0,0,1,6.38-1,48.14,48.14,0,0,1,5.25,2.16,17.57,17.57,0,0,0-4.67,3.25c-2.35,2.25-8,3.65-12.42,1.77S46.06,83.12,43.74,82.08Z" class="cls-3"/><path d="M43.74,82.08s6.55.72,9.82,1.11c6,.72,10-1.39,14.7-1.11" class="cls-3"/><circle r="2.22" cy="51.82" cx="70.55" class="cls-3"/><circle r="0.52" cy="51.82" cx="70.55" class="cls-1"/><circle r="2.26" cy="53.43" cx="40.59" class="cls-3"/><circle r="0.52" cy="53.43" cx="40.59" class="cls-1"/></g></g></svg>