<svg xmlns="http://www.w3.org/2000/svg" viewBox="0 0 446.81 476.48"><defs><style>.cls-1{fill:#e2dcc8;}.cls-2{fill:#367ceb;}</style></defs><g id="Layer_2" data-name="Layer 2"><g id="Layer_1-2" data-name="Layer 1"><circle class="cls-1" cx="248.09" cy="393.1" r="4.98"/><path class="cls-1" d="M278,326.33c-2.22.85-3.56,2.75-3,4.25s2.84,2,5.06,1.15,3.57-2.75,3-4.24S280.22,325.48,278,326.33Z"/><path class="cls-1" d="M206.69,178.56a.29.29,0,0,0,.54-.21c-.23-1-.57-2-.82-3-1.84-7.3.12-13.45,5.89-18.35a.3.3,0,0,0-.29-.51C203.43,160.59,201.57,171,206.69,178.56Z"/><path class="cls-1" d="M446.5,333.25c-4.07-30.16-78.08-69.72-90.09-75.95,1.77-2.67,3.47-5.47,5.07-8.42,16-29.5,21.29-74.41,22.38-85.33v0c.09-.84.14-1.47.18-1.88s0-.5,0-.53a1.5,1.5,0,0,0-2.71-1,1.47,1.47,0,0,0-.28.77c0,.09-.14,1.73-.44,4.56v0s0,0,0,.07v0c-1.49,13.7-7,54.63-21.8,81.91a104,104,0,0,1-5.75,9.4,2.62,2.62,0,0,0-.23.32h0a83.21,83.21,0,0,1-13.73,15.51l-.1.05a1.62,1.62,0,0,0-.35.34,62.1,62.1,0,0,1-14.59,9.38.71.71,0,0,0-.18.08,52.24,52.24,0,0,1-9.85,3.28c-15.89,3.55-32.43-.9-49.16-13.22-42.44-31.27-58-55.37-53.62-83.21,4.45-28.36,8.53-50.31,8.57-50.52a1.53,1.53,0,0,0,0-.3v-.06a1.44,1.44,0,0,0-.31-.84,1.51,1.51,0,0,0-2.67.65s-.2,1.05-.53,2.85c0,.24-.09.49-.14.76v0c-1.33,7.38-4.52,25.32-7.91,47a61.07,61.07,0,0,0-.74,8.55,28.46,28.46,0,0,1-4.08,3.05l0,0c-2.43,1.44-3.71,1.34-4.33,1-3.51-1.7-2.79-14.12-2.15-25.08.17-2.89.34-5.82.45-8.69a27.92,27.92,0,0,0,2.54,7.45.34.34,0,0,0,.64-.2c-.25-1.43-.59-2.82-.88-4.21-1.89-9.74-.12-19.77,7.46-26.71a.34.34,0,0,0-.37-.57A20,20,0,0,0,197.49,157c.08-13.79,5.39-21.7,8.4-25.07h0l.37-.41a14,14,0,0,1,1.63-1.54,1.5,1.5,0,0,0-1.77-2.42,16.25,16.25,0,0,0-1.46,1.28l-.48.48s0,0,0,0c-3.47,3.59-10.23,12.84-9.66,29.91.17,5.21-.19,11.27-.53,17.14-.79,13.62-1.47,25.38,3.85,28a5,5,0,0,0,2.21.49,7.48,7.48,0,0,0,2.51-.49q-.09,2-.06,4.08c-.93.48-2.56,1.38-4.71,2.76-4.24.16-35.42,2.3-98.28,32.38-70,33.51-82.33,56.36-90.87,82.4C.9,349.52-.19,388.21,0,392.19L2.5,394a1.53,1.53,0,0,0,.58-1.31c0-.2,0-40.34,8.41-65.86,8.2-25,20.11-47.5,89.31-80.62,50.26-24,80.41-30.08,92-31.59a113.55,113.55,0,0,0-20.1,19.8c-14.31,17.86-32.17,50.26-36,103.18a1.52,1.52,0,0,0,.44,1.18l27,26.67-22.4,20.37a1.52,1.52,0,0,0-.47,1.38c.07.39,2.07,11.32,4.59,28.22,2.35,15.9,5.16,37.05,7.23,59.68a1.49,1.49,0,0,0,1.64,1.35,1.58,1.58,0,0,0,1.31-1.73c-2.06-22.45-4.83-43.45-7.16-59.3-2.18-14.74-4-25-4.51-27.94l23-20.87a1.53,1.53,0,0,0,.49-1.08,1.48,1.48,0,0,0-.45-1.1l-27.65-27.3c3.91-51.64,21.29-83.24,35.21-100.68,10.25-12.84,20.17-20.08,25.56-23.45-1.12,8.46-3,33.85,5.06,82.1a566.19,566.19,0,0,1,7.58,104.75q-.18,7.86-.59,15.57a429.84,429.84,0,0,1-7.06,59.26,1.43,1.43,0,0,0,0,.29,1.5,1.5,0,0,0,3,.27,434.56,434.56,0,0,0,7.11-59.82q.4-7.72.58-15.57c.37-16.62,0-33.65-1.22-50.78a72.67,72.67,0,0,1,19.9-25.44c-1.13,11.28-3.21,38.12-6.35,74.56v.12a1.52,1.52,0,0,0,3,.14c3.66-41.73,6-71.58,6.58-77.37a74.15,74.15,0,0,1,15.17-8.76,173.24,173.24,0,0,0,14.69,16.55,1.48,1.48,0,0,0,1.72.25l.41-.22c-.14,8.54.62,58-4.16,91.23-.69,4.72-1.45,9.53-2.31,14.37a1,1,0,0,0,1,1.2h1a1,1,0,0,0,1-.85c.87-5,1.65-9.88,2.34-14.72,5.13-35.88,4.1-87.32,4.15-92.86A125.27,125.27,0,0,0,284.43,320a32.54,32.54,0,0,1,19,5.08c-.63,6.78-4.8,50.84-7,73.11a.76.76,0,0,0,0,.15,1.5,1.5,0,0,0,3,.14c.83-8.44,1.94-20,3-31.52a1.89,1.89,0,0,0,.3-.19c.59-.59,10.31-10.25,12.85-21.24-1.38,11.81-2.84,24.45-4.25,37.14-.59,5.37-1.17,11.12-1.71,17.16-.45,5-.88,10.21-1.29,15.57-1.43,18.63-2.58,39.12-3.29,59.45v.05a1.53,1.53,0,0,0,3.05.06c.73-20.43,1.86-41,3.26-59.56.4-5.37.83-10.58,1.28-15.57.54-5.95,1.1-11.59,1.68-16.83,5.12-46,10.83-91.53,11.66-98.18a64,64,0,0,0,13.55-8.62C356.25,301.16,373,328.47,372.7,332c-1,3.43-10.54,14.11-16.74,20.43a1.51,1.51,0,0,0,.17,2.25l27.18,20.41c-1.45,4.19-7.06,20.5-13,40.38-4.6,15.37-9.39,32.88-12.63,48.56a97.09,97.09,0,0,1-2.87,10.5,1.61,1.61,0,0,0-.08.48,1.5,1.5,0,0,0,1.49,1.5,1.53,1.53,0,0,0,1.43-1,98.29,98.29,0,0,0,3-10.84c3.28-15.89,8.17-33.67,12.82-49.17C380.17,393,386.39,375.32,386.5,375a1.5,1.5,0,0,0-.51-1.7l-26.7-20.05c3.9-4,15-15.88,16.31-20.56.35-1.25,1.07-3.86-16.78-32.29-7.22-11.48-14.62-22.64-17-26.14a86,86,0,0,0,12.83-14.49c10.29,5.37,85,45.25,88.84,73.86,1.43,10.61-1.62,41.55-1.12,52.07l2.81-3.74C444.65,372.46,447.79,342.77,446.5,333.25Zm-232,10.06c-1.29-16.24-3.27-32.55-6-48.68-7.05-42.3-6.36-67.08-5.39-77.83,3.33,26.14,19.54,50.45,30.89,67.46,2.54,3.8,4.93,7.38,6.89,10.55,3.45,5.56,7,10.63,10.43,15.07A78.31,78.31,0,0,0,214.45,343.31ZM269.22,326a191,191,0,0,1-25.79-32.74c-2-3.21-4.39-6.82-6.94-10.64-14-20.91-33-49.49-30.83-79.87.64-.41,1.31-.89,2-1.43,1.26,24.09,18.25,46.31,55.46,73.72,13.55,10,27,15,40.23,15a51.78,51.78,0,0,0,9.45-.89C306.86,296.45,290.86,314.54,269.22,326Zm33.71,36.23c1.44-15,2.77-29.13,3.31-34.92a27.49,27.49,0,0,1,4.33,4.82C318,342.6,307.74,356.6,302.93,362.2Zm16.93-51.91L316,334.15c-.5-1.28-2.12-2.55-3-3.78-7.46-10.57-18.41-12.89-24.59-13.31a162.51,162.51,0,0,0,29-29,53.37,53.37,0,0,0,5.39-1.82C322.32,290.3,321.25,298.87,319.86,310.29Z"/><path class="cls-1" d="M299.05,141.29a2.16,2.16,0,0,1-1.18-.4,73,73,0,0,0-13.11-7.18,64.05,64.05,0,0,0-26.21-5.39c-1.78,0-3.59.07-5.4.21a56.9,56.9,0,0,1,14-1.74c12.67,0,24.45,4,33.17,11.38a1.52,1.52,0,0,1,.49,1.87A2,2,0,0,1,299.05,141.29Z"/><path class="cls-1" d="M329.38,149.26a1.9,1.9,0,0,1-1.11-.37,2,2,0,0,1-.73-1,1.61,1.61,0,0,1,1-2A50,50,0,0,1,351,140.49a46.48,46.48,0,0,1,5.34.3,30.25,30.25,0,0,1,14.5,5.34,34.24,34.24,0,0,0-14-2.91c-.28,0-.57,0-.84,0-9.77.2-19.27,3.39-25.57,5.77A2.77,2.77,0,0,1,329.38,149.26Z"/><path class="cls-1" d="M283.93,148.12a23.84,23.84,0,0,0-6.56-3.81,20.25,20.25,0,0,0-3.52-1,26.32,26.32,0,0,0-15.25,1.88c-.63.26-1.25.54-1.86.81-1.3.58-2.53,1.13-3.83,1.58a28.18,28.18,0,0,1-5.32,1.29l1,0a21,21,0,0,0,5.5-.83s.28-.07.33-.07a22.2,22.2,0,0,0,7.3,5.94c4,2.06,8.78,3.06,14.67,3.06,1.5,0,3.11-.07,4.81-.2l1,0c1.33,0,2.7-.09,4.05-.09s3.53.1,4.65.2A24.65,24.65,0,0,0,283.93,148.12Zm-18.52,5.29.42.68-.76-.24c-1.06-.33-2-.67-2.86-1a31.91,31.91,0,0,1-7.36-4.75l.36-.11c.9-.26,1.79-.55,2.68-.84a42.83,42.83,0,0,1,7.1-1.84l.48-.05.69-.08-.41.56a6.9,6.9,0,0,0-1.35,4.1A7,7,0,0,0,265.41,153.41Zm13.66,2.21-2.37,0-.77,0,.58-.5a7,7,0,0,0,2.4-5.25,6.73,6.73,0,0,0-.36-2.18l-.21-.66.62.29a29.85,29.85,0,0,1,10.37,8.33c.16.18.31.36.46.55l.11.14C286.53,155.52,282.46,155.66,279.07,155.62Z"/><path class="cls-1" d="M373.24,170a15,15,0,0,1-5.06-2.81,23.82,23.82,0,0,1-3.37-3.89,17.7,17.7,0,0,0-4.75-4.9,14.8,14.8,0,0,0-7.73-2,24.92,24.92,0,0,0-10.26,2.43,36.44,36.44,0,0,0-10,6.82h.11a35.13,35.13,0,0,1,9.21,1.76A40.34,40.34,0,0,0,349,169c.71.05,1.44.07,2.16.07A33.36,33.36,0,0,0,364.86,166l.3-.14.25.23a13.34,13.34,0,0,0,7.83,3.87h0ZM343.7,166.5c-.94-.24-1.88-.47-2.87-.69a28.64,28.64,0,0,0-5.75-.61h-.78c-.38,0-.89.07-.89.07a33.67,33.67,0,0,1,4.47-2.86,41.14,41.14,0,0,1,5.67-2.28l.61-.22-.23.61a6.1,6.1,0,0,0-.43,2.27,6.27,6.27,0,0,0,1,3.36l.4.63Zm20.44-.72a61.23,61.23,0,0,1-8.85,1.51l-.72.07.47-.56a6.27,6.27,0,0,0,1.46-4,6.17,6.17,0,0,0-1-3.38l-.43-.66.75.2.69.17c2.95.71,4.86,2.73,6.59,4.74.31.41.68.85,1.2,1.42l.34.38Z"/><path class="cls-1" d="M290.44,205.79h0a10.15,10.15,0,0,1-3.13-8,10.44,10.44,0,0,1,4.13-7.86h0l.07.08a14.14,14.14,0,0,0-1,15.74Z"/><path class="cls-1" d="M328.32,209v0a8.58,8.58,0,0,0-4.54-1.43,8.15,8.15,0,0,0-5.24,2.12c-.51.39-1,.82-1.5,1.25a16,16,0,0,1-2.93,2.17,6.46,6.46,0,0,1-3,.76c-3.79,0-7.28-3.35-8.77-6.67-1-3.07-3.37-4.64-7.08-4.64a18.84,18.84,0,0,0-4,.48,14.78,14.78,0,0,1,5.17-1.06,9.09,9.09,0,0,1,3.08.52c1.95.61,2.86,2.24,3.82,3.95a16.1,16.1,0,0,0,1.52,2.39,8.26,8.26,0,0,0,6.27,3.64,5.53,5.53,0,0,0,2.44-.57,15,15,0,0,0,2.63-1.81,21.11,21.11,0,0,1,1.73-1.3,9.61,9.61,0,0,1,5.17-1.94h.16a8.6,8.6,0,0,1,4.91,2Z"/><path class="cls-1" d="M328.32,209l-.17-.12a8.6,8.6,0,0,0-4.91-2h-.16a9.61,9.61,0,0,0-5.17,1.94,21.11,21.11,0,0,0-1.73,1.3,15,15,0,0,1-2.63,1.81,5.53,5.53,0,0,1-2.44.57,8.26,8.26,0,0,1-6.27-3.64,16.1,16.1,0,0,1-1.52-2.39c-1-1.71-1.87-3.34-3.82-3.95a9.09,9.09,0,0,0-3.08-.52,14.78,14.78,0,0,0-5.17,1.06,18.84,18.84,0,0,1,4-.48c3.71,0,6.1,1.57,7.08,4.64,1.49,3.32,5,6.67,8.77,6.67a6.46,6.46,0,0,0,3-.76,16,16,0,0,0,2.93-2.17c.5-.43,1-.86,1.5-1.25a8.15,8.15,0,0,1,5.24-2.12,8.58,8.58,0,0,1,4.54,1.43Z"/><path class="cls-1" d="M311.08,213.73c-3.71,0-7.13-3.29-8.59-6.55-1-3.15-3.45-4.76-7.27-4.76-.32,0-.66,0-1,0a11.49,11.49,0,0,1,2.21-.22,8.85,8.85,0,0,1,3,.51c1.87.59,2.76,2.17,3.7,3.85a16.6,16.6,0,0,0,1.55,2.43,8.45,8.45,0,0,0,6.43,3.71,5.72,5.72,0,0,0,2.52-.59,15,15,0,0,0,2.62-1.79l.12-.1c.53-.43,1.09-.87,1.64-1.23a9.52,9.52,0,0,1,5.07-1.91h.15a7.14,7.14,0,0,1,2.44.56,7.2,7.2,0,0,0-1.88-.25,8.34,8.34,0,0,0-5.37,2.17c-.44.34-.88.71-1.31,1.09l-.2.16A15.85,15.85,0,0,1,314,213,6.37,6.37,0,0,1,311.08,213.73Zm18-8.64a16.87,16.87,0,0,0-.2-3c-.49-3.49-2.15-6.52-3.76-9.45-.48-.88-1.09-2-1.65-3.12-4.73-8.79-4.69-19.31,0-29.24-2.82,8.55-3.24,15.87-1.28,22.31a49.54,49.54,0,0,0,3.54,8.6l.12.26c.63,1.3,1.22,2.53,1.77,3.79A17.66,17.66,0,0,1,329.12,205.09Z"/><path class="cls-1" d="M75.32,300.54a1.51,1.51,0,0,0-.6,2c.33.6,32.21,60.27,22.12,129.22a1.5,1.5,0,0,0,1.27,1.7.82.82,0,0,0,.22,0,1.5,1.5,0,0,0,1.48-1.28c10.24-70-22.12-130.49-22.45-131.09A1.5,1.5,0,0,0,75.32,300.54Z"/><path class="cls-2" d="M393.72,95.16A115.41,115.41,0,0,0,389.59,69a82.17,82.17,0,0,0-4.52-12.29,22.39,22.39,0,0,1,8,5.68,52.87,52.87,0,0,0-15.25-19.75c2.57-9.29-.26-20.09-.26-20.09-3,12.23-8.58,12-8.58,12,3.87-17-10.8-29.43-10.8-29.43,5.17,13.35-1.5,20.38-1.5,20.38C339.86-1.28,303.86,0,303.86,0c16.72,6.15,17.93,13.82,17.93,13.82s-9.55-6.06-34.36-11.24C269.56-1.15,261.29,10,261.29,10c15.43-5.42,19.84,1.51,19.84,1.51s-5.59,2.8-20.24,1.5a22.79,22.79,0,0,0-21.32,10.13c10.28-6.23,15.72-4.63,18.34-2.58A7.17,7.17,0,0,1,260,23.15c-.75-1.74-17.15,9.37-18.63,10.65a103.42,103.42,0,0,0-18.1,20.46c-15.4,22.84-19.72,50.17-19.08,77.25,5.68.8,9.73,6.31,12,10.42a34.18,34.18,0,0,1,2.14,4.58,106.79,106.79,0,0,1,3.14-14.19c8-26.67,22.35-26.86,23.65-41.73.69-8,2.73-19.58,10.5-27.22,9-8.84,25.4-13,51.93-11.36,19.95,1.27,34,.33,44.5,3.86a48,48,0,0,1,7.2,3.08C371,65.19,376.87,75.12,381,84.87c8,18.86,1.42,36.57,1.42,36.57-1.43,11.22-.26,12.25-.28,18.29,0,14.82-2.43,23.06-1.13,29.68.16-.43,2.77-4.14,5.27-13.26C390.31,141.52,394.76,116.48,393.72,95.16Z"/><path class="cls-1" d="M334.43,236.73a.27.27,0,0,0,.25.16l-.37.05a27.36,27.36,0,0,1-10.22-1c-3.33-1.09-6.67-2-10.19-1.52a20.33,20.33,0,0,0-6.51,1.91.72.72,0,0,1-.84-.13c-4.79-4.73-12-5.11-18.34-4.41a104.61,104.61,0,0,1-20.08-1.3s.34-.49.33-.5c7.41,10.53,19.53,18.06,32,20.7,10.42,1.9,21.36-1.76,29.11-8.86l1.74-1.71c.9-1,2.06-2.45,3.08-3.41Zm.55-.37a23.66,23.66,0,0,1-4.73,6.17,35.87,35.87,0,0,1-19.95,9.74c-15.4,2.17-34.34-9.08-42.41-21.92a.33.33,0,0,1,.34-.5c3.29.46,6.62.77,9.95.94a87.44,87.44,0,0,0,10,0c3.32-.26,6.79-.7,10.14,0a18.46,18.46,0,0,1,9.27,4.5l-.84-.14a21.46,21.46,0,0,1,7-1.89c3.63-.44,7.21.61,10.57,1.82a27.26,27.26,0,0,0,9.45,1.26l.43,0,.21,0a.55.55,0,0,1,.54.11Z"/><path class="cls-1" d="M334.8,236.73c-20,9.43-47.33,1.86-66.71-6.36a.21.21,0,0,1,.16-.38c18.49,6.35,38.6,12.26,58.24,8.76a37.51,37.51,0,0,0,8.14-2.39.2.2,0,0,1,.27.1.21.21,0,0,1-.1.27Z"/></g></g></svg>