<svg xmlns="http://www.w3.org/2000/svg" viewBox="0 0 89.8 123.11"><defs><style>.cls-1{fill:#e2dcc8;}.cls-2{fill:#f2387c;}.cls-3{fill:none;stroke:#e2dcc8;stroke-linecap:round;stroke-linejoin:round;stroke-width:0.75px;}</style></defs><g id="Layer_2" data-name="Layer 2"><g id="Layer_1-2" data-name="Layer 1"><path class="cls-1" d="M48.67,74.2c6.11,3.43,10.88,4.52,14.47,4.52h0A30.53,30.53,0,0,0,63.28,91a12.18,12.18,0,0,1-2.92,5.71.43.43,0,0,0,0,.6.42.42,0,0,0,.29.12.42.42,0,0,0,.3-.12c4.19-4.23,4-12.32,3.82-14.6,2.7.69,8.07,2.38,11.09,5.4,3.79,3.8,3.89,5.16,4.3,10.9,0,.55.09,1.14.13,1.77.31,4,2,7.16,3.91,10.83A54.67,54.67,0,0,1,89,122.8a.42.42,0,0,0,.41.31l.11,0a.42.42,0,0,0,.3-.52A56.39,56.39,0,0,0,85,111.17c-1.89-3.59-3.52-6.7-3.81-10.51-.05-.63-.09-1.21-.13-1.76-.43-5.85-.54-7.42-4.56-11.43s-11.15-5.6-12.83-6c.14-1.34.32-2.34.42-2.81a14,14,0,0,0,4.38-.92c2.9-1.14,4.71-3.19,5.16-4.61a19.91,19.91,0,0,1,1.58-3.45A41.44,41.44,0,0,0,77.39,65a54.35,54.35,0,0,0,3-11.07c1.32-8.14-1.31-16.43-1.34-16.51a.41.41,0,0,0-.53-.27.42.42,0,0,0-.27.53c0,.08,2.59,8.18,1.3,16.12a53,53,0,0,1-3,10.89,39.93,39.93,0,0,1-2.17,4.61,20.15,20.15,0,0,0-1.64,3.59c-.29.89-1.63,2.89-4.67,4.09a13.41,13.41,0,0,1-4.39.87h-.08c-3.51.11-8.29-.89-14.57-4.41-11.81-6.63-14-17.39-14-17.5a.41.41,0,0,0-.49-.33.42.42,0,0,0-.34.49C34.23,56.23,36.5,67.37,48.67,74.2Zm15.25,8.24a31,31,0,0,1-.21,6.21,31,31,0,0,1-.16-6.29Z"/><path class="cls-1" d="M.35,123.1H.42a.42.42,0,0,0,.42-.36c1.14-7,4.87-12.17,7.87-16.31a36.55,36.55,0,0,0,3.49-5.39c.28-.57.58-1.14.88-1.69a15.12,15.12,0,0,1,5.27-1.86,11.18,11.18,0,0,1,10.47,4c7,7.9,10.43,21.21,10.46,21.34a.43.43,0,0,0,.41.32h.11a.43.43,0,0,0,.3-.52c0-.13-3.48-13.63-10.65-21.69A12.09,12.09,0,0,0,18.2,96.67,16.06,16.06,0,0,0,13.87,98a50.32,50.32,0,0,1,4.61-6.41.43.43,0,0,0-.64-.56,49.83,49.83,0,0,0-6.4,9.67A37,37,0,0,1,8,105.94c-3,4.22-6.85,9.46-8,16.68A.41.41,0,0,0,.35,123.1Z"/><path class="cls-2" d="M58.62,14.31s-2.74,4.08-11.54,6.4a5.53,5.53,0,0,0,0-3.87s-9.71,2-8.79,11.54S37,39.22,35.12,42.81s-.92,8.31,1.26,12.39,0,10.76,5.28,15.55,11.4,2.32,17,11.75-.45,18.83,12.53,21.79a10.09,10.09,0,0,1-4,.58s3.19,6.77,1.64,14a12.89,12.89,0,0,0-3.91-6.63s-3.8,2.86.64,6.63c0,0-4.54,3.8-10.38-3.1,0,0-2.29,3.75-7.52-1.58a4.31,4.31,0,0,0,4-1.22s-6.92,1.21-11.27-9.3c-2.89-7-3.31-8.94-10.14-16.12,0,0-2.74,3.24-12.1,3.73S7.53,98.13,7.53,98.13s-.42-7.67,8.8-8.59a12.49,12.49,0,0,0,11.12-9S20,77.86,18.86,71c0,0-2,6,1.2,10.56,0,0-7.6-6.76-.71-20.41,0,0-5.91-19,1-39.13S51-4.83,53.45,3.47c0,0,6.16-3.31,14.39,4.93S81.71,23.74,80.58,31.2s-1.38,9.59-1.38,9.59l-1.61-5.12A42.12,42.12,0,0,0,72.35,24C67.35,16.84,64,14.17,58.62,14.31Z"/><path class="cls-1" d="M64.21,34.58c2.71-3.41,7.58-4.34,11.54-2.91a.18.18,0,0,1,.11.22.18.18,0,0,1-.18.12,14.32,14.32,0,0,0-5.53.91,13.31,13.31,0,0,0-4.45,3,1,1,0,0,1-1.49-1.31Z"/><path class="cls-1" d="M55.17,38.1c-5.88-1.37-12.44-.24-17,3.86-.15.15-.4-.08-.26-.24a16.87,16.87,0,0,1,17.89-5.53,1,1,0,0,1-.59,1.91Z"/><path class="cls-3" d="M43.57,46.79c4.61-9.33,11.89-3.67,11.89-3.67a6.19,6.19,0,0,0-3.32,1.47c-2.94,2.2-8,1.17-8,1.17"/><circle class="cls-3" cx="49.09" cy="43.72" r="2.05"/><circle class="cls-1" cx="48.99" cy="43.59" r="0.43"/><path class="cls-3" d="M76.6,39.19c-6.77-5.35-10.21,1.49-10.21,1.49a5.07,5.07,0,0,1,3-.09c3,.6,6.42-2,6.42-2"/><circle class="cls-3" cx="71.37" cy="38.85" r="1.7"/><circle class="cls-1" cx="71.37" cy="38.8" r="0.36"/><path class="cls-3" d="M67.46,49.89s3.11,2.73,1.5,4.61"/><path class="cls-3" d="M67.89,54.34a2.92,2.92,0,0,0-1.75,1.25c-.93,1.25-2.32.43-3.36-.22a3.5,3.5,0,0,0-2.64,0"/><path class="cls-3" d="M58.3,52.2A2.86,2.86,0,0,0,58.6,56"/><path class="cls-1" d="M54.45,64.09a.56.56,0,0,1,.27-.44,12.06,12.06,0,0,1,10-2.43l-.63.15a6.13,6.13,0,0,1,2-.93,11.12,11.12,0,0,1,6.13.25.37.37,0,0,1,.28.45,11.88,11.88,0,0,1-2,3.57c-3.43,6-10.82,3.06-15.34.06-.11-.09-.36-.25-.47-.34a.47.47,0,0,1-.26-.34Zm.74-.07c0-.11-.15-.31-.15-.28l.26.09,2.11.72c3.55,1.06,8,3.08,11,0,1.1-1.21,2.42-2.38,3.43-3.67,0,0,.28.54.26.53a11.25,11.25,0,0,0-7,1.18.89.89,0,0,1-.63.14,13.52,13.52,0,0,0-9.2,1.53l-.07,0h0a.31.31,0,0,0,.09-.3Z"/></g></g></svg>